<svg width="24" height="24" viewBox="0 0 24 24" fill="none" xmlns="http://www.w3.org/2000/svg">
<path fill-rule="evenodd" clip-rule="evenodd" d="M17.3232 15.7261H18.6354C18.7897 15.7261 18.8919 15.8919 18.8215 16.0323C17.3255 19.0525 14.2745 21 10.8807 21C5.97043 21 1.99094 16.96 2.00002 11.9808C2.0091 7.01078 6.08394 2.93855 10.9896 3.0007C14.3403 3.03984 17.3414 4.98042 18.8215 7.9661C18.8919 8.10653 18.792 8.27227 18.6354 8.27227H17.3232C17.1961 8.27227 17.0758 8.20551 17.0077 8.09502C16.7194 7.63232 16.3834 7.20415 15.9975 6.81281C15.3324 6.13832 14.5582 5.60886 13.6979 5.24054C12.808 4.85841 11.8614 4.66504 10.8829 4.66504C9.9068 4.66504 8.95789 4.85841 8.06801 5.24054C7.20764 5.60886 6.43353 6.13832 5.76839 6.81281C5.10325 7.48729 4.58113 8.27227 4.21791 9.14473C3.84107 10.0494 3.65038 11.007 3.65038 11.9992C3.65038 12.9914 3.84107 13.9513 4.21791 14.8537C4.58113 15.7261 5.10325 16.5111 5.76839 17.1856C6.43353 17.8601 7.20764 18.3895 8.06801 18.7579C8.95789 19.14 9.90453 19.3334 10.8829 19.3334C11.8591 19.3334 12.8057 19.14 13.6979 18.7579C14.5582 18.3895 15.3324 17.8601 15.9975 17.1856C16.3834 16.7943 16.7194 16.3661 17.0077 15.9034C17.0758 15.7929 17.1961 15.7261 17.3232 15.7261ZM16.0069 9.69723H21.8184C21.9182 9.69723 22 9.7801 22 9.88139V10.9863C22 11.0876 21.9182 11.1705 21.8184 11.1705H16.0069C15.907 11.1705 15.8253 11.0876 15.8253 10.9863V9.88139C15.8253 9.7801 15.907 9.69723 16.0069 9.69723ZM16.0069 12.8279H18.7764C18.8763 12.8279 18.958 12.9108 18.958 13.0121V14.1171C18.958 14.2183 18.8763 14.3012 18.7764 14.3012H16.0069C15.907 14.3012 15.8253 14.2183 15.8253 14.1171V13.0121C15.8253 12.9108 15.907 12.8279 16.0069 12.8279ZM10.2181 7.63694H11.2011C11.3396 7.63694 11.4553 7.75204 11.4531 7.89476V12.9776L14.3293 15.0862C14.4428 15.1691 14.4678 15.3302 14.386 15.4453V15.4476L13.8026 16.2556C13.7209 16.3707 13.562 16.3937 13.4485 16.3109L10.0683 13.8109C10.0025 13.7625 9.96387 13.6866 9.96387 13.6037V7.89476C9.96387 7.75204 10.0774 7.63694 10.2181 7.63694Z" fill="white"/>
</svg>
