<svg width="172" height="40" viewBox="0 0 172 40" fill="none" xmlns="http://www.w3.org/2000/svg">
<g clip-path="url(#clip0)">
<path d="M0 33.7343C0 33.2308 0.112162 32.7273 0.280404 32.2238C0.448647 31.7762 0.729051 31.3287 1.00946 30.993C1.34594 30.6573 1.73851 30.3776 2.18715 30.1538C2.6358 29.9301 3.19661 29.8741 3.75742 29.8741C4.14998 29.8741 4.48647 29.9301 4.82295 29.986C5.15944 30.0419 5.43984 30.1538 5.77633 30.2657L5.32768 31.944C5.15944 31.8881 4.93511 31.8322 4.71079 31.7762C4.48647 31.6643 4.26215 31.6643 3.92566 31.6643C3.30877 31.6643 2.86012 31.8322 2.52364 32.2238C2.24323 32.6154 2.07499 33.1189 2.07499 33.7343C2.07499 34.4056 2.24323 34.9091 2.52364 35.2447C2.80404 35.5804 3.30877 35.8042 3.98174 35.8042C4.20606 35.8042 4.48647 35.8042 4.76687 35.7482C5.04728 35.6923 5.32768 35.6364 5.552 35.5245L5.83241 37.2028C5.60809 37.3147 5.2716 37.3706 4.93512 37.4825C4.59863 37.5944 4.14998 37.5944 3.75742 37.5944C3.08445 37.5944 2.52364 37.4825 2.01891 37.3147C1.51418 37.0909 1.12162 36.8671 0.841213 36.4755C0.504728 36.1398 0.280404 35.7482 0.168243 35.2447C0.0560809 34.7972 0 34.2937 0 33.7343Z" fill="#FFE400"/>
<path d="M13.852 33.7343C13.852 34.2937 13.7959 34.8531 13.6277 35.3007C13.4594 35.7482 13.2351 36.1958 12.8986 36.5315C12.5621 36.8671 12.2256 37.1468 11.777 37.3147C11.3283 37.4825 10.8236 37.5944 10.3189 37.5944C9.75807 37.5944 9.30943 37.4825 8.86078 37.3147C8.41213 37.1468 8.01957 36.8671 7.73916 36.5315C7.40268 36.1958 7.17835 35.8042 7.01011 35.3007C6.84187 34.7972 6.72971 34.2937 6.72971 33.7343C6.72971 33.1748 6.84187 32.6154 7.01011 32.1678C7.17835 31.7203 7.45876 31.2727 7.73916 30.9371C8.07565 30.6014 8.46821 30.3217 8.86078 30.1538C9.30943 29.986 9.75807 29.8741 10.3189 29.8741C10.8236 29.8741 11.3283 29.986 11.777 30.1538C12.2256 30.3217 12.6182 30.6014 12.8986 30.9371C13.2351 31.2727 13.4594 31.6643 13.6277 32.1678C13.7398 32.6154 13.852 33.1189 13.852 33.7343ZM11.7209 33.7343C11.7209 33.1189 11.6087 32.6154 11.3283 32.2238C11.0479 31.8322 10.7114 31.6643 10.2067 31.6643C9.75807 31.6643 9.36551 31.8322 9.0851 32.2238C8.8047 32.6154 8.69254 33.1189 8.69254 33.7343C8.69254 34.3496 8.8047 34.9091 9.0851 35.2447C9.36551 35.5804 9.70199 35.8042 10.2067 35.8042C10.6554 35.8042 11.0479 35.6364 11.3283 35.2447C11.6087 34.8531 11.7209 34.3496 11.7209 33.7343Z" fill="#FFE400"/>
<path d="M19.4601 33.5105C19.4601 32.8392 19.3479 32.3916 19.1797 32.1119C19.0114 31.8322 18.731 31.7203 18.2824 31.7203C18.1702 31.7203 18.002 31.7203 17.8898 31.7203C17.7776 31.7203 17.6094 31.7762 17.4972 31.7762V37.4266H15.4222V30.3217C15.5905 30.2657 15.8148 30.2098 16.0391 30.1538C16.2635 30.0979 16.5439 30.0419 16.7682 30.0419C17.0486 29.986 17.329 29.986 17.6094 29.9301C17.8898 29.9301 18.1702 29.8741 18.4506 29.8741C18.9553 29.8741 19.404 29.9301 19.7405 30.0979C20.077 30.2098 20.3574 30.3776 20.5817 30.6014C20.8621 30.3776 21.1986 30.2098 21.5911 30.0979C21.9837 29.986 22.3202 29.9301 22.6567 29.9301C23.2175 29.9301 23.7222 29.986 24.1148 30.1538C24.5073 30.3217 24.7877 30.5454 25.0121 30.8252C25.2364 31.1049 25.4046 31.4965 25.4607 31.8881C25.5168 32.2797 25.5729 32.7273 25.5729 33.2308V37.3706H23.4979V33.5105C23.4979 32.8392 23.3857 32.3916 23.2175 32.1119C23.0492 31.8322 22.7688 31.7203 22.3202 31.7203C22.208 31.7203 22.0398 31.7203 21.8715 31.7762C21.6472 31.8322 21.479 31.8881 21.3668 32C21.4229 32.2238 21.479 32.4475 21.479 32.6713C21.479 32.8951 21.5351 33.1748 21.5351 33.4545V37.4266H19.4601V33.5105Z" fill="#FFE400"/>
<path d="M31.5174 33.5105C31.5174 32.8392 31.4053 32.3916 31.237 32.1119C31.0688 31.8322 30.7884 31.7203 30.3397 31.7203C30.2276 31.7203 30.0593 31.7203 29.9472 31.7203C29.835 31.7203 29.6668 31.7762 29.5546 31.7762V37.4266H27.4796V30.3217C27.6479 30.2657 27.8722 30.2098 28.0965 30.1538C28.3208 30.0979 28.6012 30.0419 28.8256 30.0419C29.106 29.986 29.3864 29.986 29.6668 29.9301C29.9472 29.9301 30.2276 29.8741 30.508 29.8741C31.0127 29.8741 31.4614 29.9301 31.7978 30.0979C32.1343 30.2098 32.4147 30.3776 32.6391 30.6014C32.9195 30.3776 33.2559 30.2098 33.6485 30.0979C34.0411 29.986 34.3776 29.9301 34.714 29.9301C35.2749 29.9301 35.7796 29.986 36.1721 30.1538C36.5647 30.3217 36.8451 30.5454 37.0694 30.8252C37.2938 31.1049 37.462 31.4965 37.5181 31.8881C37.5742 32.2797 37.6302 32.7273 37.6302 33.2308V37.3706H35.5553V33.5105C35.5553 32.8392 35.4431 32.3916 35.2749 32.1119C35.1066 31.8322 34.8262 31.7203 34.3776 31.7203C34.2654 31.7203 34.0972 31.7203 33.9289 31.7762C33.7046 31.8322 33.5363 31.8881 33.4242 32C33.4803 32.2238 33.5363 32.4475 33.5363 32.6713C33.5363 32.8951 33.5363 33.1748 33.5363 33.4545V37.4266H31.4614V33.5105H31.5174Z" fill="#FFE400"/>
<path d="M45.762 37.1469C45.4255 37.2588 44.9769 37.3706 44.4161 37.4266C43.8553 37.5385 43.2944 37.5385 42.6776 37.5385C42.0607 37.5385 41.5559 37.4825 41.1073 37.3147C40.6586 37.1469 40.3782 36.9231 40.0978 36.5874C39.8735 36.3077 39.7053 35.9161 39.5931 35.5245C39.4809 35.1329 39.4249 34.6294 39.4249 34.1259V30.042H41.4999V33.8462C41.4999 34.5175 41.612 35.021 41.7803 35.3007C41.9485 35.5804 42.285 35.7483 42.7897 35.7483C42.958 35.7483 43.0701 35.7483 43.2384 35.7483C43.4066 35.7483 43.5748 35.6923 43.687 35.6923V30.042H45.762V37.1469Z" fill="#FFE400"/>
<path d="M47.7248 30.3217C48.0613 30.2098 48.5099 30.0979 49.0707 30.0419C49.6315 29.9301 50.1924 29.9301 50.8092 29.9301C51.4261 29.9301 51.9309 29.986 52.3795 30.1538C52.7721 30.3217 53.1086 30.5454 53.389 30.8252C53.6694 31.1049 53.7815 31.4965 53.8937 31.8881C54.0059 32.2797 54.0619 32.7273 54.0619 33.2308V37.3706H51.9869V33.5105C51.9869 32.8391 51.8748 32.3916 51.7065 32.1119C51.5383 31.8322 51.2018 31.7203 50.6971 31.7203C50.5288 31.7203 50.4167 31.7203 50.2484 31.7203C50.0802 31.7203 49.9119 31.7762 49.7998 31.7762V37.4266H47.7248V30.3217Z" fill="#FFE400"/>
<path d="M58.2119 27.972C58.2119 28.3637 58.0998 28.6434 57.8194 28.8671C57.595 29.0909 57.2586 29.2028 56.9221 29.2028C56.5856 29.2028 56.3052 29.0909 56.0248 28.8671C55.7444 28.6434 55.6322 28.3637 55.6322 27.972C55.6322 27.5804 55.7444 27.3007 56.0248 27.0769C56.2491 26.8532 56.5856 26.7413 56.9221 26.7413C57.2586 26.7413 57.539 26.8532 57.8194 27.0769C58.0998 27.2448 58.2119 27.5804 58.2119 27.972ZM58.0437 37.3706H55.9687V30.042H58.0437V37.3706Z" fill="#FFE400"/>
<path d="M59.8944 28.2517L61.9694 27.9161V30.0979H64.493V31.8322H61.9694V34.4056C61.9694 34.8531 62.0254 35.1888 62.1937 35.4685C62.3619 35.7482 62.6423 35.8601 63.1471 35.8601C63.3714 35.8601 63.5957 35.8601 63.82 35.8042C64.0444 35.7482 64.2687 35.6923 64.493 35.6364L64.7734 37.2587C64.5491 37.3706 64.2687 37.4266 63.9322 37.5385C63.6518 37.5944 63.2592 37.6503 62.8106 37.6503C62.2498 37.6503 61.8011 37.5944 61.4086 37.4266C61.016 37.2587 60.7356 37.035 60.5113 36.8112C60.2869 36.5315 60.1187 36.1958 60.0626 35.8042C59.9505 35.4126 59.9505 34.965 59.9505 34.5175V28.2517H59.8944Z" fill="#FFE400"/>
<path d="M72.849 30.0419C72.4565 31.4405 72.0078 32.7832 71.5592 34.014C71.1105 35.2447 70.6058 36.4196 70.045 37.5944C69.8767 37.986 69.6524 38.3776 69.4842 38.6573C69.3159 38.937 69.0916 39.2168 68.8673 39.3846C68.643 39.5524 68.3626 39.7203 68.0822 39.7762C67.8018 39.8881 67.4653 39.8881 67.0727 39.8881C66.7362 39.8881 66.4558 39.8321 66.1754 39.7762C65.895 39.7203 65.6707 39.6643 65.5024 39.5524L65.8389 37.8741C66.0632 37.9301 66.2315 37.986 66.3997 38.0419C66.568 38.0979 66.7362 38.0979 66.9045 38.0979C67.297 38.0979 67.5774 37.986 67.7457 37.8182C67.97 37.5944 68.1382 37.3706 68.2504 36.979C67.8018 36.028 67.297 35.021 66.8484 33.8461C66.3997 32.6713 65.9511 31.3846 65.5024 29.9301H67.6896C67.8018 30.2657 67.9139 30.6573 68.0261 31.1049C68.1382 31.5524 68.3065 31.944 68.4186 32.3916C68.5308 32.8391 68.6991 33.2308 68.8673 33.6783C69.0355 34.0699 69.1477 34.4615 69.2599 34.7972C69.372 34.4615 69.4842 34.0699 69.6524 33.6783C69.7646 33.2867 69.9328 32.8391 70.045 32.3916C70.1572 31.944 70.2693 31.5524 70.4376 31.1049C70.5497 30.6573 70.6619 30.2657 70.774 29.9301H72.849V30.0419Z" fill="#FFE400"/>
<path d="M84.1774 33.7343C84.1774 34.2937 84.0652 34.8531 83.953 35.3007C83.7848 35.8042 83.5605 36.1958 83.224 36.5315C82.8875 36.8671 82.551 37.1468 82.1024 37.3147C81.6537 37.4825 81.149 37.5944 80.5882 37.5944C80.0274 37.5944 79.5787 37.4825 79.1301 37.3147C78.6815 37.1468 78.2889 36.8671 78.0085 36.5315C77.672 36.1958 77.4477 35.8042 77.2794 35.3007C77.1112 34.7972 76.999 34.2937 76.999 33.7343C76.999 33.1748 77.1112 32.6154 77.2794 32.1678C77.4477 31.7203 77.7281 31.2727 78.0085 30.9371C78.345 30.6014 78.7375 30.3217 79.1301 30.1538C79.5787 29.986 80.0274 29.8741 80.5882 29.8741C81.0929 29.8741 81.5977 29.986 82.0463 30.1538C82.4949 30.3217 82.8875 30.6014 83.1679 30.9371C83.5044 31.2727 83.7287 31.6643 83.897 32.1678C84.0652 32.6154 84.1774 33.1189 84.1774 33.7343ZM82.0463 33.7343C82.0463 33.1189 81.9341 32.6154 81.6537 32.2238C81.3733 31.8322 81.0368 31.6643 80.5321 31.6643C80.0274 31.6643 79.6909 31.8322 79.4105 32.2238C79.1301 32.6154 79.0179 33.1189 79.0179 33.7343C79.0179 34.3496 79.1301 34.9091 79.4105 35.2447C79.6909 35.5804 80.0274 35.8042 80.5321 35.8042C81.0368 35.8042 81.3733 35.6364 81.6537 35.2447C81.8781 34.8531 82.0463 34.3496 82.0463 33.7343Z" fill="#FFE400"/>
<path d="M88.9442 26.5734C89.3368 26.5734 89.6733 26.6294 90.0098 26.6853C90.3462 26.7413 90.5706 26.8531 90.7388 26.9091L90.3463 28.5874C90.178 28.5315 89.9537 28.4196 89.7294 28.4196C89.505 28.3636 89.2807 28.3636 89.1125 28.3636C88.8881 28.3636 88.6638 28.4196 88.4956 28.4755C88.3273 28.5315 88.2152 28.6434 88.103 28.7552C87.9909 28.8671 87.9348 29.035 87.8787 29.2028C87.8226 29.3706 87.8226 29.5385 87.8226 29.7622V30.0979H90.4023V31.8322H87.8226V37.4266H85.7476V29.6503C85.7476 28.6993 86.028 27.972 86.5328 27.4126C87.0936 26.8531 87.8787 26.5734 88.9442 26.5734Z" fill="#FFE400"/>
<path d="M94.6645 33.7902C94.6645 33.1189 94.7767 32.5594 94.9449 32.1119C95.1692 31.6084 95.3935 31.2168 95.73 30.8811C96.0665 30.5454 96.403 30.3217 96.8516 30.1538C97.3003 29.986 97.6929 29.9301 98.1415 29.9301C99.207 29.9301 99.9922 30.2657 100.609 30.8811C101.226 31.4965 101.506 32.4475 101.506 33.6783C101.506 33.7902 101.506 33.958 101.506 34.0699C101.506 34.2377 101.506 34.3496 101.45 34.4615H96.7395C96.7956 34.9091 96.9638 35.2447 97.3564 35.4685C97.6929 35.6923 98.1976 35.8601 98.7584 35.8601C99.151 35.8601 99.4874 35.8042 99.88 35.7482C100.273 35.6923 100.553 35.5804 100.777 35.4685L101.058 37.1468C100.946 37.2028 100.777 37.2587 100.609 37.3147C100.441 37.3706 100.216 37.4266 99.9922 37.4825C99.7678 37.5384 99.5435 37.5384 99.2631 37.5944C98.9827 37.6503 98.7584 37.6503 98.478 37.6503C97.805 37.6503 97.2442 37.5384 96.7395 37.3706C96.2348 37.2028 95.8422 36.9231 95.5057 36.5874C95.1692 36.2517 94.9449 35.8601 94.7766 35.3566C94.7206 34.7972 94.6645 34.2937 94.6645 33.7902ZM99.5435 33.007C99.5435 32.8391 99.4874 32.6713 99.4314 32.5035C99.3753 32.3356 99.3192 32.1678 99.207 32.0559C99.0949 31.944 98.9827 31.8322 98.8145 31.7203C98.6462 31.6643 98.4219 31.6084 98.1976 31.6084C97.9733 31.6084 97.7489 31.6643 97.5807 31.7203C97.4125 31.7762 97.3003 31.8881 97.1881 32.0559C97.076 32.1678 96.9638 32.3356 96.9077 32.5035C96.8516 32.6713 96.7956 32.8391 96.7956 33.007H99.5435Z" fill="#FFE400"/>
<path d="M103.133 30.3217C103.469 30.2098 103.918 30.0979 104.479 30.0419C105.039 29.9301 105.6 29.9301 106.217 29.9301C106.834 29.9301 107.339 29.986 107.787 30.1538C108.236 30.3217 108.516 30.5454 108.797 30.8252C109.021 31.1049 109.189 31.4965 109.302 31.8881C109.414 32.2797 109.47 32.7273 109.47 33.2308V37.3706H107.395V33.5105C107.395 32.8391 107.283 32.3916 107.114 32.1119C106.946 31.8322 106.61 31.7203 106.105 31.7203C105.937 31.7203 105.825 31.7203 105.656 31.7203C105.488 31.7203 105.32 31.7762 105.208 31.7762V37.4266H103.133V30.3217Z" fill="#FFE400"/>
<path d="M117.714 36.4755C117.714 37.6503 117.433 38.5454 116.816 39.1608C116.2 39.7203 115.246 40.0559 114.012 40.0559C113.564 40.0559 113.115 40 112.666 39.944C112.218 39.8881 111.825 39.7762 111.433 39.6084L111.769 37.8741C112.106 37.986 112.442 38.0979 112.779 38.1538C113.115 38.2098 113.564 38.2657 114.012 38.2657C114.629 38.2657 115.022 38.1538 115.302 37.8741C115.527 37.5944 115.695 37.2587 115.695 36.8671V36.5874C115.47 36.6993 115.246 36.7552 115.022 36.8112C114.798 36.8671 114.517 36.8671 114.237 36.8671C113.227 36.8671 112.442 36.5874 111.881 35.972C111.321 35.3566 111.096 34.5175 111.096 33.4545C111.096 32.8951 111.152 32.4475 111.321 32C111.489 31.5524 111.713 31.1608 112.05 30.8811C112.386 30.5454 112.779 30.3217 113.227 30.1538C113.676 29.986 114.237 29.8741 114.798 29.8741C115.022 29.8741 115.302 29.8741 115.583 29.9301C115.863 29.9301 116.087 29.986 116.368 30.0419C116.648 30.0979 116.873 30.0979 117.097 30.1538C117.321 30.2098 117.545 30.2657 117.714 30.3217V36.4755ZM113.115 33.5105C113.115 34.6853 113.564 35.2447 114.517 35.2447C114.741 35.2447 114.91 35.2447 115.134 35.1888C115.302 35.1329 115.47 35.0769 115.583 35.021V31.7203C115.47 31.7203 115.358 31.6643 115.246 31.6643C115.134 31.6643 114.966 31.6643 114.741 31.6643C114.181 31.6643 113.788 31.8322 113.508 32.2238C113.283 32.4475 113.115 32.951 113.115 33.5105Z" fill="#FFE400"/>
<path d="M121.92 27.972C121.92 28.3637 121.808 28.6434 121.527 28.8671C121.303 29.0909 120.966 29.2028 120.63 29.2028C120.293 29.2028 120.013 29.0909 119.733 28.8671C119.452 28.6434 119.452 28.3077 119.452 27.972C119.452 27.5804 119.564 27.3007 119.845 27.0769C120.069 26.8532 120.406 26.7413 120.742 26.7413C121.079 26.7413 121.359 26.8532 121.639 27.0769C121.808 27.2448 121.92 27.5804 121.92 27.972ZM121.752 37.3706H119.677V30.042H121.752V37.3706Z" fill="#FFE400"/>
<path d="M123.658 30.3217C123.995 30.2098 124.443 30.0979 125.004 30.0419C125.565 29.9301 126.126 29.9301 126.743 29.9301C127.36 29.9301 127.864 29.986 128.313 30.1538C128.762 30.3217 129.042 30.5454 129.322 30.8252C129.603 31.1049 129.715 31.4965 129.827 31.8881C129.939 32.2797 129.995 32.7273 129.995 33.2308V37.3706H127.92V33.5105C127.92 32.8391 127.808 32.3916 127.64 32.1119C127.472 31.8322 127.135 31.7203 126.631 31.7203C126.462 31.7203 126.35 31.7203 126.182 31.7203C126.014 31.7203 125.845 31.7762 125.733 31.7762V37.4266H123.658V30.3217Z" fill="#FFE400"/>
<path d="M131.566 33.7902C131.566 33.1189 131.678 32.5594 131.846 32.1119C132.07 31.6084 132.295 31.2168 132.631 30.8811C132.968 30.5454 133.304 30.3217 133.753 30.1538C134.201 29.986 134.594 29.9301 135.043 29.9301C136.108 29.9301 136.893 30.2657 137.51 30.8811C138.127 31.4965 138.408 32.4475 138.408 33.6783C138.408 33.7902 138.408 33.958 138.408 34.0699C138.408 34.2377 138.408 34.3496 138.408 34.4615H133.697C133.753 34.9091 133.921 35.2447 134.314 35.4685C134.65 35.6923 135.155 35.8601 135.716 35.8601C136.108 35.8601 136.445 35.8042 136.837 35.7482C137.23 35.6923 137.51 35.5804 137.735 35.4685L138.015 37.1468C137.903 37.2028 137.735 37.2587 137.566 37.3147C137.398 37.3706 137.174 37.4266 136.949 37.4825C136.725 37.5384 136.501 37.5384 136.22 37.5944C135.94 37.5944 135.716 37.6503 135.435 37.6503C134.762 37.6503 134.201 37.5384 133.697 37.3706C133.192 37.2028 132.799 36.9231 132.463 36.5874C132.126 36.2517 131.902 35.8601 131.734 35.3566C131.566 34.8531 131.566 34.2937 131.566 33.7902ZM136.445 33.007C136.445 32.8391 136.389 32.6713 136.333 32.5035C136.276 32.3356 136.22 32.1678 136.108 32.0559C135.996 31.944 135.884 31.8322 135.716 31.7203C135.547 31.6643 135.323 31.6084 135.099 31.6084C134.874 31.6084 134.65 31.6643 134.482 31.7203C134.314 31.7762 134.201 31.8881 134.089 32.0559C133.977 32.1678 133.865 32.3356 133.809 32.5035C133.753 32.6713 133.697 32.8391 133.697 33.007H136.445Z" fill="#FFE400"/>
<path d="M139.697 33.7902C139.697 33.1189 139.81 32.5594 139.978 32.1119C140.202 31.6084 140.426 31.2168 140.763 30.8811C141.099 30.5454 141.436 30.3217 141.885 30.1538C142.333 29.986 142.726 29.9301 143.174 29.9301C144.24 29.9301 145.025 30.2657 145.642 30.8811C146.259 31.4965 146.539 32.4475 146.539 33.6783C146.539 33.7902 146.539 33.958 146.539 34.0699C146.539 34.2377 146.539 34.3496 146.483 34.4615H141.772C141.829 34.9091 141.997 35.2447 142.389 35.4685C142.726 35.6923 143.231 35.8601 143.791 35.8601C144.184 35.8601 144.52 35.8042 144.913 35.7482C145.306 35.6923 145.586 35.5804 145.81 35.4685L146.091 37.1468C145.978 37.2028 145.81 37.2587 145.642 37.3147C145.474 37.3706 145.249 37.4266 145.025 37.4825C144.801 37.5384 144.576 37.5384 144.296 37.5944C144.016 37.6503 143.791 37.6503 143.511 37.6503C142.838 37.6503 142.277 37.5384 141.772 37.3706C141.268 37.2028 140.875 36.9231 140.539 36.5874C140.202 36.2517 139.978 35.8601 139.81 35.3566C139.754 34.7972 139.697 34.2937 139.697 33.7902ZM144.576 33.007C144.576 32.8391 144.52 32.6713 144.464 32.5035C144.408 32.3356 144.352 32.1678 144.24 32.0559C144.128 31.944 144.016 31.8322 143.847 31.7203C143.679 31.6643 143.455 31.6084 143.231 31.6084C143.006 31.6084 142.782 31.6643 142.614 31.7203C142.445 31.7762 142.333 31.8881 142.221 32.0559C142.109 32.1678 141.997 32.3356 141.941 32.5035C141.885 32.6713 141.829 32.8391 141.829 33.007H144.576Z" fill="#FFE400"/>
<path d="M152.596 31.8881C152.428 31.8322 152.203 31.7762 151.923 31.7203C151.699 31.6643 151.418 31.6643 151.138 31.6643C151.026 31.6643 150.857 31.6643 150.689 31.7203C150.521 31.7203 150.353 31.7762 150.297 31.7762V37.3706H148.222V30.4336C148.614 30.3217 149.007 30.1538 149.568 30.0419C150.072 29.9301 150.633 29.8741 151.25 29.8741C151.362 29.8741 151.474 29.8741 151.643 29.8741C151.811 29.8741 151.979 29.9301 152.091 29.9301C152.26 29.9301 152.428 29.986 152.54 29.986C152.708 30.0419 152.82 30.0419 152.932 30.0979L152.596 31.8881Z" fill="#FFE400"/>
<path d="M156.185 35.9161C156.578 35.9161 156.858 35.8601 156.97 35.8042C157.139 35.7482 157.195 35.5804 157.195 35.3566C157.195 35.1888 157.082 35.021 156.914 34.9091C156.69 34.7972 156.41 34.6294 155.961 34.4615C155.624 34.3496 155.344 34.2378 155.064 34.0699C154.783 33.9021 154.559 33.7902 154.391 33.6224C154.222 33.4545 154.054 33.2308 153.942 32.951C153.83 32.7273 153.774 32.3916 153.774 32.0559C153.774 31.3846 154.054 30.8252 154.559 30.4336C155.064 30.042 155.793 29.8182 156.69 29.8182C157.139 29.8182 157.587 29.8741 157.98 29.9301C158.372 29.986 158.709 30.0979 158.933 30.2098L158.597 31.8322C158.372 31.7762 158.092 31.6643 157.812 31.6084C157.531 31.5524 157.195 31.4965 156.858 31.4965C156.185 31.4965 155.905 31.6643 155.905 32.0559C155.905 32.1119 155.905 32.2238 155.961 32.2797C155.961 32.3357 156.017 32.3916 156.129 32.4475C156.185 32.5035 156.353 32.5594 156.466 32.6713C156.634 32.7273 156.802 32.8392 157.026 32.8951C157.475 33.0629 157.868 33.2308 158.148 33.3986C158.428 33.5664 158.709 33.7343 158.877 33.9021C159.045 34.0699 159.157 34.2937 159.214 34.5175C159.27 34.7413 159.326 35.021 159.326 35.3007C159.326 36.028 159.045 36.5874 158.485 36.9231C157.924 37.3147 157.195 37.4825 156.185 37.4825C155.512 37.4825 155.008 37.4266 154.559 37.3147C154.11 37.2028 153.83 37.0909 153.662 37.035L153.998 35.3566C154.335 35.4685 154.727 35.5804 155.064 35.6923C155.456 35.8601 155.849 35.9161 156.185 35.9161Z" fill="#FFE400"/>
<path d="M2.01892 1.95804H3.75743L7.51485 12.4196C7.96349 13.7063 8.46822 15.0489 8.91687 16.3916H9.02903C9.47768 15.0489 9.92632 13.7622 10.375 12.4196L14.0763 1.95804H15.8709V19.8042H14.6371V8.05594C14.6371 6.60139 14.6932 4.75524 14.8054 3.24475H14.6932L13.2912 7.21678L9.42159 17.7902H8.41214L4.54256 7.21678L3.14054 3.24475H3.02838C3.08446 4.75524 3.19662 6.60139 3.19662 8.05594V19.7482H2.01892V1.95804Z" fill="white"/>
<path d="M20.077 16.5035C20.077 13.6503 22.6567 12.2517 28.4891 11.6364C28.4891 9.67831 27.9844 7.55244 25.4046 7.55244C23.6661 7.55244 22.152 8.3916 21.2547 9.06293L20.6939 8.16782C21.5911 7.49649 23.4418 6.4895 25.5729 6.4895C28.6573 6.4895 29.6668 8.72726 29.6668 11.4685V19.7482H28.6573L28.5452 18.0699H28.4891C27.1432 19.1329 25.5729 20.0839 23.8905 20.0839C21.8155 20.0839 20.077 18.965 20.077 16.5035ZM28.4891 16.951V12.5315C23.1053 13.1468 21.3107 14.3776 21.3107 16.4475C21.3107 18.2937 22.6006 19.021 24.0587 19.021C25.5729 19.0769 26.8627 18.3496 28.4891 16.951Z" fill="white"/>
<path d="M34.3215 16.1678V7.83218H32.3026V6.93707L34.3776 6.82519L34.5458 3.07693H35.5553V6.82519H39.3127V7.83218H35.5553V16.2797C35.5553 17.9021 35.9478 19.021 37.7424 19.021C38.2472 19.021 38.9201 18.8532 39.3688 18.6294L39.7053 19.5804C38.9201 19.8601 38.135 20.0839 37.5742 20.0839C35.0505 20.0839 34.3215 18.5175 34.3215 16.1678Z" fill="white"/>
<path d="M42.4532 0.335663H43.6309V8.83916C44.9769 7.4965 46.3228 6.48951 48.1174 6.48951C50.8093 6.48951 52.043 8.11189 52.043 11.4685V19.8042H50.8653V11.5804C50.8653 8.83916 50.0241 7.4965 47.8931 7.4965C46.3228 7.4965 45.2573 8.33566 43.6309 9.95804V19.7483H42.4532V0.335663Z" fill="white"/>
<path d="M56.0809 18.8531C56.0809 18.0699 56.6417 17.6224 57.2586 17.6224C57.8755 17.6224 58.3802 18.0699 58.3802 18.8531C58.3802 19.6364 57.8194 20.0839 57.2586 20.0839C56.6978 20.0839 56.0809 19.6364 56.0809 18.8531Z" fill="white"/>
<path d="M78.0646 19.7483H63.5396V0.95105H70.8862C72.4565 0.95105 73.7463 1.23077 74.7558 1.79021C75.7092 2.34965 76.4943 3.07692 77.0551 4.02797C77.6159 4.97902 77.8963 5.98601 77.8963 7.16084C77.8963 8.55944 77.4477 9.84615 76.6065 10.9091C75.7652 12.028 74.6436 12.7552 73.3538 13.0909L78.0646 19.7483ZM64.5491 2.57343V12.3077H71.5031L64.5491 2.57343ZM64.5491 18.7413H76.1578L72.1761 13.2587H71.3349H64.5491V18.7413ZM65.2781 1.95804L72.6247 12.2517C73.8585 11.972 74.8119 11.4126 75.6531 10.4615C76.4943 9.51049 76.8308 8.39161 76.8308 7.16084C76.8308 6.15385 76.6065 5.25874 76.1017 4.47553C75.597 3.63636 74.924 3.02098 74.0267 2.62937C73.2416 2.23776 72.1761 2.01399 70.8862 2.01399H65.2781V1.95804Z" fill="white"/>
<path d="M81.8781 16.5035C81.8781 13.6503 84.4578 12.2517 90.2902 11.6364C90.2902 9.67831 89.7855 7.55244 87.2057 7.55244C85.4672 7.55244 83.953 8.3916 83.0558 9.06293L82.4949 8.16782C83.3922 7.49649 85.2429 6.4895 87.374 6.4895C90.4584 6.4895 91.4679 8.72726 91.4679 11.4685V19.7482H90.4584L90.3463 18.0699H90.2902C88.9442 19.1329 87.374 20.0839 85.6916 20.0839C83.5605 20.0839 81.8781 18.965 81.8781 16.5035ZM90.2341 16.951V12.5315C84.8503 13.1468 83.0558 14.3776 83.0558 16.4475C83.0558 18.2937 84.3456 19.021 85.8037 19.021C87.2618 19.021 88.6077 18.3496 90.2341 16.951Z" fill="white"/>
<path d="M96.0665 6.76923H97.076L97.1881 8.78321H97.2442C98.5902 7.44056 99.9361 6.43356 101.731 6.43356C104.423 6.43356 105.656 8.05594 105.656 11.4126V19.7482H104.479V11.5804C104.479 8.83916 103.637 7.4965 101.506 7.4965C99.9361 7.4965 98.8706 8.33566 97.2442 9.95804V19.7482H96.0665V6.76923Z" fill="white"/>
<path d="M109.414 13.3147C109.414 9.11888 112.106 6.48951 115.19 6.48951C116.76 6.48951 117.826 7.10489 119.116 8.11189L119.06 5.70629V0.335663H120.237V19.8042H119.228L119.116 18.1259H119.06C117.994 19.1888 116.592 20.1399 114.854 20.1399C111.545 20.0839 109.414 17.6783 109.414 13.3147ZM119.06 16.8951V9.17482C117.658 7.94405 116.536 7.4965 115.246 7.4965C112.666 7.4965 110.648 10.014 110.648 13.2587C110.648 16.6713 112.162 18.965 114.91 18.965C116.424 19.021 117.714 18.2937 119.06 16.8951Z" fill="white"/>
<path d="M124.163 13.3147C124.163 8.95104 126.855 6.4895 129.995 6.4895C133.136 6.4895 135.828 8.95104 135.828 13.3147C135.828 17.6224 133.136 20.0839 129.995 20.0839C126.855 20.0839 124.163 17.6224 124.163 13.3147ZM134.594 13.3147C134.594 9.90209 132.631 7.55244 129.995 7.55244C127.36 7.55244 125.397 9.90209 125.397 13.3147C125.397 16.7273 127.36 19.021 129.995 19.021C132.631 19.021 134.594 16.7273 134.594 13.3147Z" fill="white"/>
<path d="M139.754 6.76923H140.763L140.875 8.78321H140.931C142.109 7.44056 143.567 6.43356 145.025 6.43356C147.1 6.43356 148.166 7.4965 148.614 9.06293C150.128 7.44056 151.531 6.43356 153.045 6.43356C155.624 6.43356 156.97 8.05594 156.97 11.4126V19.7482H155.737V11.5804C155.737 8.83916 154.839 7.4965 152.82 7.4965C151.587 7.4965 150.353 8.33566 148.895 9.95804V19.7482H147.717V11.5804C147.717 8.83916 146.82 7.4965 144.801 7.4965C143.623 7.4965 142.333 8.33566 140.875 9.95804V19.7482H139.697V6.76923H139.754Z" fill="white"/>
<path d="M161.625 12.2517C161.625 7.4965 162.971 3.58042 165.214 0L165.943 0.447552C163.812 3.86014 162.691 8 162.691 12.2517C162.691 16.5035 163.812 20.6434 165.943 24.0559L165.214 24.5035C163.027 20.9231 161.625 17.007 161.625 12.2517Z" fill="white"/>
<path d="M167.682 24.0559C169.813 20.6434 170.934 16.5035 170.934 12.2517C170.934 8 169.813 3.86014 167.682 0.447552L168.411 0C170.654 3.58042 172 7.4965 172 12.2517C172 17.007 170.654 20.9231 168.411 24.5035L167.682 24.0559Z" fill="white"/>
</g>
<defs>
<clipPath id="clip0">
<rect width="172" height="40" fill="white"/>
</clipPath>
</defs>
</svg>
