<svg width="63" height="64" viewBox="0 0 63 64" fill="none" xmlns="http://www.w3.org/2000/svg">
<path fill-rule="evenodd" clip-rule="evenodd" d="M10.8281 14.6666C9.5596 14.6666 8.53125 15.7113 8.53125 16.9999V46.9999C8.53125 48.2886 9.5596 49.3333 10.8281 49.3333H52.1719C53.4404 49.3333 54.4688 48.2886 54.4688 46.9999V16.9999C54.4688 15.7113 53.4404 14.6666 52.1719 14.6666H10.8281ZM3.28125 16.9999C3.28125 12.7657 6.6601 9.33325 10.8281 9.33325H52.1719C56.3399 9.33325 59.7188 12.7657 59.7188 16.9999V46.9999C59.7188 51.2341 56.3399 54.6666 52.1719 54.6666H10.8281C6.6601 54.6666 3.28125 51.2341 3.28125 46.9999V16.9999Z" fill="white"/>
<path fill-rule="evenodd" clip-rule="evenodd" d="M11.7093 21.0294C12.5994 19.8668 14.2486 19.6574 15.393 20.5616L31.5001 33.2882L47.6073 20.5616C48.7516 19.6574 50.4009 19.8668 51.2909 21.0294C52.181 22.1919 51.9748 23.8673 50.8305 24.7715L33.1117 38.7715C32.1638 39.5205 30.8364 39.5205 29.8885 38.7715L12.1698 24.7715C11.0254 23.8673 10.8193 22.1919 11.7093 21.0294Z" fill="white"/>
</svg>
