<svg width="170" height="25" viewBox="0 0 170 25" fill="none" xmlns="http://www.w3.org/2000/svg">
<path d="M0.00946045 1.99301H1.74797L5.50538 12.4545C5.95403 13.7413 6.45876 15.0839 6.90741 16.4266H7.01957C7.46822 15.0839 7.91686 13.7972 8.36551 12.4545L12.0668 1.99301H13.8614V19.8392H12.6277V8.09091C12.6277 6.63637 12.6837 4.79021 12.7959 3.27972H12.6837L11.2817 7.25175L7.41213 17.8252H6.40268L2.5331 7.25175L1.13108 3.27972H1.01892C1.075 4.79021 1.18716 6.63637 1.18716 8.09091V19.7832H0.00946045V1.99301Z" fill="white"/>
<path d="M18.0675 16.5385C18.0675 13.6853 20.6472 12.2867 26.4796 11.6713C26.4796 9.71329 25.9749 7.58741 23.3952 7.58741C21.6567 7.58741 20.1425 8.42657 19.2452 9.0979L18.6844 8.2028C19.5817 7.53147 21.4324 6.52448 23.5634 6.52448C26.6479 6.52448 27.6573 8.76224 27.6573 11.5035V19.7832H26.6479L26.5357 18.1049H26.4796C25.1337 19.1678 23.5634 20.1189 21.881 20.1189C19.806 20.1189 18.0675 19 18.0675 16.5385ZM26.4796 16.986V12.5664C21.0959 13.1818 19.3013 14.4126 19.3013 16.4825C19.3013 18.3287 20.5911 19.0559 22.0492 19.0559C23.5634 19.1119 24.8533 18.3846 26.4796 16.986Z" fill="white"/>
<path d="M32.312 16.2028V7.86715H30.2931V6.97205L32.3681 6.86016L32.5364 3.11191H33.5458V6.86016H37.3032V7.86715H33.5458V16.3147C33.5458 17.9371 33.9384 19.056 35.733 19.056C36.2377 19.056 36.9107 18.8881 37.3593 18.6644L37.6958 19.6154C36.9107 19.8951 36.1255 20.1189 35.5647 20.1189C33.0411 20.1189 32.312 18.5525 32.312 16.2028Z" fill="white"/>
<path d="M40.4438 0.370636H41.6215V8.87413C42.9674 7.53148 44.3133 6.52448 46.1079 6.52448C48.7998 6.52448 50.0336 8.14686 50.0336 11.5035V19.8392H48.8559V11.6154C48.8559 8.87413 48.0147 7.53148 45.8836 7.53148C44.3133 7.53148 43.2478 8.37064 41.6215 9.99301V19.7832H40.4438V0.370636Z" fill="white"/>
<path d="M54.0714 18.8881C54.0714 18.1049 54.6322 17.6573 55.2491 17.6573C55.866 17.6573 56.3707 18.1049 56.3707 18.8881C56.3707 19.6713 55.8099 20.1189 55.2491 20.1189C54.6883 20.1189 54.0714 19.6713 54.0714 18.8881Z" fill="white"/>
<path d="M76.0551 19.7832H61.5302V0.986023H68.8767C70.447 0.986023 71.7369 1.26574 72.7463 1.82518C73.6997 2.38462 74.4848 3.1119 75.0456 4.06295C75.6064 5.014 75.8869 6.02099 75.8869 7.19581C75.8869 8.59441 75.4382 9.88113 74.597 10.9441C73.7558 12.0629 72.6342 12.7902 71.3443 13.1259L76.0551 19.7832ZM62.5396 2.6084V12.3427H69.4936L62.5396 2.6084ZM62.5396 18.7762H74.1483L70.1666 13.2937H69.3254H62.5396V18.7762ZM63.2687 1.99302L70.6153 12.2867C71.849 12.007 72.8024 11.4476 73.6436 10.4965C74.4848 9.54546 74.8213 8.42658 74.8213 7.19581C74.8213 6.18882 74.597 5.29372 74.0923 4.5105C73.5875 3.67134 72.9146 3.05595 72.0173 2.66434C71.2321 2.27274 70.1666 2.04896 68.8767 2.04896H63.2687V1.99302Z" fill="white"/>
<path d="M79.8686 16.5385C79.8686 13.6853 82.4483 12.2867 88.2807 11.6713C88.2807 9.71329 87.776 7.58741 85.1963 7.58741C83.4578 7.58741 81.9436 8.42657 81.0463 9.0979L80.4855 8.2028C81.3828 7.53147 83.2334 6.52448 85.3645 6.52448C88.449 6.52448 89.4584 8.76224 89.4584 11.5035V19.7832H88.449L88.3368 18.1049H88.2807C86.9348 19.1678 85.3645 20.1189 83.6821 20.1189C81.551 20.1189 79.8686 19 79.8686 16.5385ZM88.2246 16.986V12.5664C82.8409 13.1818 81.0463 14.4126 81.0463 16.4825C81.0463 18.3287 82.3361 19.0559 83.7943 19.0559C85.2524 19.0559 86.5983 18.3846 88.2246 16.986Z" fill="white"/>
<path d="M94.0571 6.8042H95.0665L95.1787 8.81819H95.2348C96.5807 7.47553 97.9266 6.46854 99.7212 6.46854C102.413 6.46854 103.647 8.09091 103.647 11.4476V19.7832H102.469V11.6154C102.469 8.87413 101.628 7.53147 99.4969 7.53147C97.9266 7.53147 96.8611 8.37063 95.2348 9.99301V19.7832H94.0571V6.8042Z" fill="white"/>
<path d="M107.404 13.3497C107.404 9.15385 110.096 6.52448 113.181 6.52448C114.751 6.52448 115.816 7.13987 117.106 8.14686L117.05 5.74126V0.370636H118.228V19.8392H117.218L117.106 18.1608H117.05C115.985 19.2238 114.583 20.1748 112.844 20.1748C109.535 20.1189 107.404 17.7133 107.404 13.3497ZM117.05 16.9301V9.2098C115.648 7.97903 114.527 7.53147 113.237 7.53147C110.657 7.53147 108.638 10.049 108.638 13.2937C108.638 16.7063 110.152 19 112.9 19C114.414 19.056 115.704 18.3287 117.05 16.9301Z" fill="white"/>
<path d="M122.154 13.3496C122.154 8.98601 124.845 6.52448 127.986 6.52448C131.127 6.52448 133.818 8.98601 133.818 13.3496C133.818 17.6573 131.127 20.1189 127.986 20.1189C124.845 20.1189 122.154 17.6573 122.154 13.3496ZM132.585 13.3496C132.585 9.93706 130.622 7.58741 127.986 7.58741C125.35 7.58741 123.387 9.93706 123.387 13.3496C123.387 16.7622 125.35 19.0559 127.986 19.0559C130.622 19.0559 132.585 16.7622 132.585 13.3496Z" fill="white"/>
<path d="M137.744 6.8042H138.754L138.866 8.81819H138.922C140.099 7.47553 141.558 6.46854 143.016 6.46854C145.091 6.46854 146.156 7.53147 146.605 9.09791C148.119 7.47553 149.521 6.46854 151.035 6.46854C153.615 6.46854 154.961 8.09091 154.961 11.4476V19.7832H153.727V11.6154C153.727 8.87413 152.83 7.53147 150.811 7.53147C149.577 7.53147 148.343 8.37063 146.885 9.99301V19.7832H145.708V11.6154C145.708 8.87413 144.81 7.53147 142.791 7.53147C141.614 7.53147 140.324 8.37063 138.866 9.99301V19.7832H137.688V6.8042H137.744Z" fill="white"/>
<path d="M159.616 12.2867C159.616 7.53148 160.962 3.61539 163.205 0.0349731L163.934 0.482526C161.803 3.89511 160.681 8.03497 160.681 12.2867C160.681 16.5385 161.803 20.6783 163.934 24.0909L163.205 24.5385C161.018 20.958 159.616 17.042 159.616 12.2867Z" fill="white"/>
<path d="M165.672 24.0909C167.803 20.6783 168.925 16.5385 168.925 12.2867C168.925 8.03497 167.803 3.89511 165.672 0.482526L166.401 0.0349731C168.645 3.61539 169.991 7.53148 169.991 12.2867C169.991 17.042 168.645 20.958 166.401 24.5385L165.672 24.0909Z" fill="white"/>
</svg>
